<svg xmlns="http://www.w3.org/2000/svg" version="1.1" xmlns:xlink="http://www.w3.org/1999/xlink" xmlns:svgjs="http://svgjs.dev/svgjs" width="1440" height="560" preserveAspectRatio="none" viewBox="0 0 1440 560">
    <g mask="url(&quot;#SvgjsMask1038&quot;)" fill="none">
        <rect width="1440" height="560" x="0" y="0" fill="#F6CACA"></rect>
        <path d="M0,332.373C68.123,340.4,139.168,342.658,200.596,312.133C265.433,279.914,319.885,225.662,348.544,159.175C376.924,93.337,369.678,19.245,357.285,-51.37C345.196,-120.251,328.35,-192.306,278.288,-241.138C229.68,-288.552,154.771,-286.788,91.273,-310.847C21.133,-337.423,-43.88,-415.225,-114.504,-389.963C-186.121,-364.345,-187.11,-261.52,-227.248,-196.912C-259.615,-144.812,-307.012,-104.896,-327.513,-47.089C-351.475,20.479,-386.15,97.568,-354.494,161.892C-322.813,226.268,-237.014,237.093,-172.354,268.189C-115.963,295.308,-62.143,325.051,0,332.373" fill="#E45151"></path>
        <path d="M1440 1139.431C1549.879 1160.975 1664.867 1116.981 1758.078 1054.939 1850.4850000000001 993.433 1934.634 904.656 1956.296 795.785 1976.88 692.332 1898.3 599.623 1868.825 498.344 1844.28 414.004 1848.508 321.733 1797.519 250.20800000000003 1743.868 174.949 1666.42 116.93700000000001 1577.922 90.28199999999998 1489.101 63.528999999999996 1397.016 86.71499999999997 1305.525 102.02100000000002 1201.806 119.37299999999999 1084.8899999999999 113.93799999999999 1007.9590000000001 185.63400000000001 929.252 258.985 905.633 374.738 897.758 482.03700000000003 890.224 584.699 909.113 690.395 964.548 777.131 1016.4159999999999 858.287 1116.504 885.789 1193.112 944.165 1278.294 1009.0740000000001 1334.907 1118.825 1440 1139.431" fill="#ea7676"></path>
    </g>
    <defs>
        <mask id="SvgjsMask1038">
            <rect width="1440" height="560" fill="#ffffff"></rect>
        </mask>
    </defs>
</svg>